<svg width="15" height="14" viewBox="0 0 15 14" fill="none" xmlns="http://www.w3.org/2000/svg">
<path d="M10.5625 1.96875H4.4375C4.03139 1.96875 3.64191 2.13008 3.35474 2.41724C3.06758 2.70441 2.90625 3.09389 2.90625 3.5V11.375C2.90625 11.549 2.97539 11.716 3.09846 11.839C3.22153 11.9621 3.38845 12.0312 3.5625 12.0312H4.875C5.04905 12.0312 5.21597 11.9621 5.33904 11.839C5.46211 11.716 5.53125 11.549 5.53125 11.375V10.2812H9.46875V11.375C9.46875 11.549 9.53789 11.716 9.66096 11.839C9.78403 11.9621 9.95095 12.0312 10.125 12.0312H11.4375C11.6115 12.0312 11.7785 11.9621 11.9015 11.839C12.0246 11.716 12.0938 11.549 12.0938 11.375V3.5C12.0938 3.09389 11.9324 2.70441 11.6453 2.41724C11.3581 2.13008 10.9686 1.96875 10.5625 1.96875ZM3.34375 9.84375V6.34375H11.6562V9.84375H3.34375ZM11.6562 5.90625H3.34375V4.15625H11.6562V5.90625ZM5.09375 11.375C5.09375 11.433 5.0707 11.4887 5.02968 11.5297C4.98866 11.5707 4.93302 11.5938 4.875 11.5938H3.5625C3.50448 11.5938 3.44884 11.5707 3.40782 11.5297C3.3668 11.4887 3.34375 11.433 3.34375 11.375V10.2812H5.09375V11.375ZM11.4375 11.5938H10.125C10.067 11.5938 10.0113 11.5707 9.97032 11.5297C9.9293 11.4887 9.90625 11.433 9.90625 11.375V10.2812H11.6562V11.375C11.6562 11.433 11.6332 11.4887 11.5922 11.5297C11.5512 11.5707 11.4955 11.5938 11.4375 11.5938ZM11.6562 3.71875H3.34375V3.5C3.34375 3.20992 3.45898 2.93172 3.6641 2.7266C3.86922 2.52148 4.14742 2.40625 4.4375 2.40625H10.5625C10.8526 2.40625 11.1308 2.52148 11.3359 2.7266C11.541 2.93172 11.6562 3.20992 11.6562 3.5V3.71875ZM5.96875 8.09375C5.96875 8.18028 5.94309 8.26487 5.89502 8.33681C5.84694 8.40876 5.77862 8.46483 5.69867 8.49795C5.61873 8.53106 5.53076 8.53972 5.4459 8.52284C5.36103 8.50596 5.28308 8.4643 5.22189 8.40311C5.16071 8.34192 5.11904 8.26397 5.10216 8.1791C5.08528 8.09424 5.09394 8.00627 5.12705 7.92633C5.16017 7.84638 5.21624 7.77805 5.28819 7.72998C5.36013 7.68191 5.44472 7.65625 5.53125 7.65625C5.64728 7.65625 5.75856 7.70234 5.84061 7.78439C5.92266 7.86644 5.96875 7.97772 5.96875 8.09375ZM9.90625 8.09375C9.90625 8.18028 9.88059 8.26487 9.83252 8.33681C9.78445 8.40876 9.71612 8.46483 9.63617 8.49795C9.55623 8.53106 9.46826 8.53972 9.3834 8.52284C9.29853 8.50596 9.22058 8.4643 9.15939 8.40311C9.0982 8.34192 9.05654 8.26397 9.03966 8.1791C9.02278 8.09424 9.03144 8.00627 9.06455 7.92633C9.09767 7.84638 9.15374 7.77805 9.22569 7.72998C9.29763 7.68191 9.38222 7.65625 9.46875 7.65625C9.58478 7.65625 9.69606 7.70234 9.77811 7.78439C9.86016 7.86644 9.90625 7.97772 9.90625 8.09375ZM13.8438 4.375V5.6875C13.8438 5.74552 13.8207 5.80116 13.7797 5.84218C13.7387 5.8832 13.683 5.90625 13.625 5.90625C13.567 5.90625 13.5113 5.8832 13.4703 5.84218C13.4293 5.80116 13.4062 5.74552 13.4062 5.6875V4.375C13.4062 4.31698 13.4293 4.26134 13.4703 4.22032C13.5113 4.1793 13.567 4.15625 13.625 4.15625C13.683 4.15625 13.7387 4.1793 13.7797 4.22032C13.8207 4.26134 13.8438 4.31698 13.8438 4.375ZM1.59375 4.375V5.6875C1.59375 5.74552 1.5707 5.80116 1.52968 5.84218C1.48866 5.8832 1.43302 5.90625 1.375 5.90625C1.31698 5.90625 1.26134 5.8832 1.22032 5.84218C1.1793 5.80116 1.15625 5.74552 1.15625 5.6875V4.375C1.15625 4.31698 1.1793 4.26134 1.22032 4.22032C1.26134 4.1793 1.31698 4.15625 1.375 4.15625C1.43302 4.15625 1.48866 4.1793 1.52968 4.22032C1.5707 4.26134 1.59375 4.31698 1.59375 4.375Z" fill="white"/>
</svg>
