<svg width="20" height="20" viewBox="0 0 20 20" fill="none" xmlns="http://www.w3.org/2000/svg">
<path d="M8.75 4.58317C8.75 4.47266 8.7939 4.36668 8.87204 4.28854C8.95018 4.2104 9.05616 4.1665 9.16667 4.1665H10.8333C10.9438 4.1665 11.0498 4.2104 11.128 4.28854C11.2061 4.36668 11.25 4.47266 11.25 4.58317C11.25 4.69368 11.2061 4.79966 11.128 4.8778C11.0498 4.95594 10.9438 4.99984 10.8333 4.99984H9.16667C9.05616 4.99984 8.95018 4.95594 8.87204 4.8778C8.7939 4.79966 8.75 4.69368 8.75 4.58317Z" fill="#222222"/>
<path fill-rule="evenodd" clip-rule="evenodd" d="M13.9008 7.71667C13.7495 7.83542 13.5533 7.93042 13.3166 8.0075C13.3271 8.11472 13.3324 8.22333 13.3324 8.33333C13.3322 8.7847 13.2404 9.23132 13.0625 9.64612C12.8845 10.0609 12.6242 10.4353 12.2972 10.7465C11.9703 11.0577 11.5836 11.2992 11.1605 11.4565C10.7374 11.6137 10.2868 11.6834 9.83598 11.6613C9.38516 11.6393 8.94352 11.5258 8.53784 11.328C8.13216 11.1301 7.77089 10.8519 7.47594 10.5103C7.18098 10.1686 6.95849 9.77061 6.82195 9.34039C6.6854 8.91018 6.63765 8.45672 6.68159 8.0075C6.44493 7.93042 6.24868 7.83542 6.09784 7.71667C5.90201 7.5625 5.77076 7.35667 5.75534 7.10917C5.74076 6.87958 5.83159 6.68458 5.92243 6.54708C6.01206 6.41682 6.11854 6.29899 6.23909 6.19667C6.29798 6.14556 6.35437 6.10014 6.40826 6.06042C6.39215 5.97458 6.3752 5.87181 6.35743 5.75208C6.28399 5.22683 6.24779 4.69703 6.24909 4.16667C6.24909 4.03583 6.30493 3.93833 6.33076 3.89708C6.36326 3.845 6.40159 3.80042 6.43659 3.76458C6.50618 3.69167 6.59618 3.6175 6.69493 3.54625C6.89493 3.40125 7.16993 3.23833 7.49659 3.08583C8.14784 2.78167 9.04243 2.5 9.99909 2.5C10.9558 2.5 11.8503 2.78208 12.5016 3.08583C12.7825 3.21422 13.0508 3.36835 13.3033 3.54625C13.402 3.6175 13.492 3.69208 13.5616 3.76458C13.5966 3.80042 13.6349 3.845 13.6674 3.89708C13.6933 3.93833 13.7491 4.03583 13.7491 4.16667C13.7491 4.83417 13.6949 5.375 13.6408 5.75208C13.623 5.87208 13.606 5.97486 13.5899 6.06042C13.6433 6.1 13.7012 6.14542 13.7595 6.19667C13.8637 6.28792 13.9828 6.40667 14.0758 6.54708C14.167 6.68458 14.2574 6.87958 14.2433 7.10958C14.2278 7.35667 14.0966 7.5625 13.9008 7.71667ZM7.08326 4.29917C7.08951 4.86083 7.13618 5.315 7.18243 5.6325C7.19354 5.7075 7.20409 5.77444 7.21409 5.83333H12.7841C12.7944 5.77417 12.8049 5.70722 12.8158 5.6325C12.8616 5.315 12.9087 4.86083 12.9149 4.29917C12.8825 4.27179 12.849 4.24566 12.8145 4.22083C12.6641 4.11208 12.4358 3.975 12.1491 3.84125C11.5728 3.57208 10.8008 3.33333 9.99909 3.33333C9.19743 3.33333 8.42534 3.57208 7.84909 3.84125C7.56243 3.975 7.33409 4.11208 7.18409 4.22042C7.14948 4.2455 7.11584 4.27191 7.08326 4.29958M6.99409 6.66667L6.99284 6.6675C6.92091 6.71539 6.85203 6.76772 6.78659 6.82417C6.71243 6.88917 6.65326 6.9525 6.61743 7.0075C6.60909 7.01999 6.60144 7.03293 6.59451 7.04625L6.61284 7.06167C6.67534 7.11083 6.80951 7.18292 7.07118 7.25417C7.12284 7.26806 7.17826 7.28167 7.23743 7.295L7.24118 7.29583C7.45034 7.34208 7.70784 7.38333 8.02159 7.41583C8.46618 7.46208 9.02576 7.4925 9.72493 7.49917L9.99909 7.5C11.3437 7.5 12.2133 7.41625 12.7574 7.29583L12.7608 7.295C12.8202 7.28194 12.8758 7.26833 12.9274 7.25417C13.1887 7.18333 13.3233 7.11083 13.3853 7.06167L13.4037 7.04625C13.3969 7.03294 13.3894 7.02 13.3812 7.0075C13.3325 6.93954 13.2756 6.87795 13.2116 6.82417C13.1463 6.76773 13.0775 6.71541 13.0058 6.6675L13.0041 6.66667H6.99409ZM9.88576 8.33333C10.9866 8.33333 11.8399 8.275 12.4941 8.17333C12.4974 8.22611 12.4991 8.27944 12.4991 8.33333C12.4988 8.66698 12.4317 8.99719 12.3018 9.3045C12.1719 9.61182 11.9818 9.89002 11.7427 10.1227C11.5036 10.3554 11.2203 10.5379 10.9096 10.6594C10.5989 10.7809 10.267 10.839 9.93345 10.8303C9.59992 10.8215 9.27152 10.7461 8.9676 10.6084C8.66368 10.4707 8.39039 10.2736 8.16383 10.0287C7.93728 9.78378 7.76204 9.49598 7.64845 9.18227C7.53485 8.86856 7.48521 8.53528 7.50243 8.20208C8.11201 8.28625 8.89326 8.33333 9.88576 8.33333ZM6.69826 16.1988C6.67645 16.3538 6.66559 16.5101 6.66576 16.6667V17.0833C6.66581 17.1749 6.63567 17.264 6.58001 17.3367C6.52435 17.4095 6.44627 17.4619 6.35785 17.4858C6.26943 17.5097 6.17559 17.5038 6.09086 17.469C6.00612 17.4342 5.93521 17.3725 5.88909 17.2933C5.60814 17.4453 5.2797 17.4839 4.97118 17.4013L4.16618 17.1854C3.84608 17.0995 3.5732 16.89 3.40755 16.6029C3.24191 16.3158 3.19705 15.9747 3.28284 15.6546L3.60618 14.4471C3.69201 14.1269 3.90151 13.8539 4.18858 13.6882C4.47566 13.5225 4.81682 13.4776 5.13701 13.5633L5.94201 13.7788C6.22201 13.8538 6.45451 14.0183 6.61618 14.2333C7.00196 13.6965 7.51006 13.2593 8.09841 12.9579C8.68676 12.6565 9.33844 12.4995 9.99951 12.5C10.6602 12.4997 11.3115 12.6566 11.8996 12.9579C12.4876 13.2591 12.9955 13.6961 13.3812 14.2325C13.5489 14.0107 13.7859 13.8512 14.0545 13.7792L14.8595 13.5638C15.1796 13.478 15.5207 13.5228 15.8078 13.6885C16.0949 13.8541 16.3044 14.127 16.3903 14.4471L16.7141 15.655C16.7566 15.8136 16.7674 15.979 16.7459 16.1417C16.7245 16.3045 16.6712 16.4614 16.5891 16.6035C16.507 16.7457 16.3977 16.8703 16.2674 16.9702C16.1372 17.0701 15.9885 17.1434 15.8299 17.1858L15.0253 17.4013C14.7174 17.4839 14.3894 17.4458 14.1087 17.2946C14.0624 17.3736 13.9914 17.4352 13.9066 17.4698C13.8219 17.5044 13.728 17.5102 13.6397 17.4861C13.5513 17.4621 13.4733 17.4096 13.4178 17.3368C13.3623 17.264 13.3323 17.1749 13.3324 17.0833V16.6667C13.3326 16.5101 13.3217 16.3538 13.2999 16.1988L11.1316 16.78C11.0309 16.9954 10.8709 17.1777 10.6703 17.3054C10.4697 17.4331 10.2369 17.5009 9.99909 17.5009C9.7613 17.5009 9.52845 17.4331 9.32785 17.3054C9.12726 17.1777 8.96724 16.9954 8.86659 16.78L6.69826 16.1988ZM8.79909 15.8988C8.8548 15.7087 8.95487 15.5346 9.09107 15.3908C9.22726 15.247 9.39567 15.1376 9.58243 15.0717V13.3592C8.998 13.4331 8.44356 13.6604 7.97541 14.0179C7.50727 14.3755 7.1421 14.8506 6.91701 15.395L8.79909 15.8988ZM13.0812 15.3946C12.856 14.8503 12.4908 14.3753 12.0227 14.0178C11.5546 13.6603 11.0001 13.4331 10.4158 13.3592V15.0713C10.7924 15.2046 11.0866 15.5129 11.1991 15.8992L13.0812 15.3946ZM13.9758 15.0946C13.9616 15.0417 13.958 14.9866 13.9651 14.9323C13.9722 14.8781 13.99 14.8258 14.0173 14.7784C14.0447 14.731 14.0811 14.6894 14.1245 14.6561C14.1679 14.6228 14.2175 14.5983 14.2703 14.5842L15.0753 14.3683C15.182 14.3398 15.2957 14.3548 15.3913 14.4101C15.4869 14.4653 15.5567 14.5563 15.5853 14.6629L15.9091 15.8704C15.9233 15.9233 15.9269 15.9784 15.9198 16.0327C15.9126 16.0869 15.8949 16.1392 15.8675 16.1866C15.8402 16.234 15.8038 16.2756 15.7603 16.3089C15.7169 16.3422 15.6674 16.3667 15.6145 16.3808L14.8095 16.5967C14.7566 16.6108 14.7015 16.6144 14.6472 16.6073C14.5929 16.6001 14.5406 16.5823 14.4932 16.5549C14.4458 16.5276 14.4042 16.4911 14.3709 16.4476C14.3376 16.4042 14.3132 16.3546 14.2991 16.3017L13.9758 15.0946ZM4.92159 14.3683C4.86871 14.3541 4.81353 14.3504 4.75923 14.3575C4.70492 14.3646 4.65255 14.3824 4.6051 14.4097C4.55766 14.4371 4.51607 14.4735 4.48273 14.517C4.44938 14.5604 4.42492 14.61 4.41076 14.6629L4.08743 15.87C4.07325 15.9229 4.06962 15.978 4.07675 16.0322C4.08388 16.0865 4.10163 16.1388 4.12899 16.1862C4.15634 16.2336 4.19277 16.2752 4.23618 16.3085C4.2796 16.3418 4.32915 16.3663 4.38201 16.3804L5.18701 16.5963C5.23987 16.6104 5.295 16.6141 5.34926 16.6069C5.40352 16.5998 5.45584 16.582 5.50324 16.5547C5.55064 16.5273 5.59218 16.4909 5.6255 16.4475C5.65882 16.4041 5.68326 16.3545 5.69743 16.3017L6.02076 15.0942C6.035 15.0413 6.03868 14.9861 6.03157 14.9318C6.02447 14.8775 6.00673 14.8251 5.97937 14.7777C5.95201 14.7302 5.91557 14.6886 5.87212 14.6553C5.82868 14.622 5.77908 14.5975 5.72618 14.5833L4.92159 14.3683ZM10.4158 16.25C10.4158 16.3605 10.3719 16.4665 10.2937 16.5446C10.2156 16.6228 10.1096 16.6667 9.99909 16.6667C9.88859 16.6667 9.78261 16.6228 9.70446 16.5446C9.62632 16.4665 9.58243 16.3605 9.58243 16.25C9.58243 16.1395 9.62632 16.0335 9.70446 15.9554C9.78261 15.8772 9.88859 15.8333 9.99909 15.8333C10.1096 15.8333 10.2156 15.8772 10.2937 15.9554C10.3719 16.0335 10.4158 16.1395 10.4158 16.25Z" fill="#222222"/>
</svg>
