<svg width="24" height="24" viewBox="0 0 24 24" fill="none" xmlns="http://www.w3.org/2000/svg">
<path d="M12 16.423C12.1747 16.423 12.321 16.364 12.439 16.246C12.5563 16.128 12.615 15.982 12.615 15.808C12.615 15.634 12.556 15.4877 12.438 15.369C12.32 15.2503 12.174 15.1913 12 15.192C11.826 15.1927 11.68 15.2517 11.562 15.369C11.444 15.4863 11.385 15.6327 11.385 15.808C11.385 15.9833 11.444 16.1293 11.562 16.246C11.68 16.3627 11.826 16.4217 12 16.423ZM11.5 13.462H12.5V7.384H11.5V13.462ZM8.673 20L4 15.336V8.673L8.664 4H15.327L20 8.664V15.327L15.336 20H8.673ZM9.1 19H14.9L19 14.9V9.1L14.9 5H9.1L5 9.1V14.9L9.1 19Z" fill="#373030"/>
</svg>
