<svg width="19" height="19" viewBox="0 0 19 19" fill="none" xmlns="http://www.w3.org/2000/svg">
<g clip-path="url(#clip0_3558_3031)">
<path d="M6.37031 6.64746C5.36249 6.64746 4.39595 7.04782 3.68331 7.76046C2.97067 8.47309 2.57031 9.43964 2.57031 10.4475C2.57031 11.4553 2.97067 12.4218 3.68331 13.1345C4.39595 13.8471 5.36249 14.2475 6.37031 14.2475C7.37814 14.2475 8.34468 13.8471 9.05732 13.1345C9.76996 12.4218 10.1703 11.4553 10.1703 10.4475C10.1703 9.43964 9.76996 8.47309 9.05732 7.76046C8.34468 7.04782 7.37814 6.64746 6.37031 6.64746ZM7.54907 7.42418C7.63271 7.42484 7.71469 7.44758 7.78672 7.49009C7.85876 7.5326 7.91829 7.59338 7.9593 7.66628C8.00031 7.73917 8.02134 7.82161 8.02027 7.90524C8.0192 7.98888 7.99606 8.07075 7.9532 8.14257L6.6422 10.4135L8.01913 11.3011C8.12503 11.3694 8.19948 11.4769 8.22609 11.6001C8.25271 11.7232 8.22932 11.8519 8.16106 11.9578C8.09281 12.0637 7.98528 12.1381 7.86214 12.1647C7.73899 12.1913 7.61032 12.168 7.50442 12.0997L5.74692 10.9671C5.6444 10.901 5.57124 10.798 5.54259 10.6795C5.51394 10.5609 5.53199 10.4358 5.59302 10.3302L7.13031 7.66757C7.17189 7.5932 7.2327 7.53139 7.30637 7.4886C7.38005 7.44581 7.46388 7.42344 7.54907 7.42418Z" fill="#222222"/>
<path fill-rule="evenodd" clip-rule="evenodd" d="M0.47937 0.950217C0.416625 0.94964 0.354388 0.9615 0.296253 0.985112C0.238118 1.00872 0.185237 1.04362 0.140666 1.08779C0.096094 1.13195 0.0607145 1.18451 0.0365707 1.24243C0.0124269 1.30034 -2.6551e-06 1.36247 4.25417e-10 1.42522L4.25417e-10 14.7803C1.51907e-05 14.8708 0.0259016 14.9595 0.0746102 15.0358C0.123319 15.1121 0.192821 15.1729 0.27493 15.211L6.29147 18.0059C6.35554 18.0357 6.42545 18.0509 6.4961 18.0502C6.56386 18.0497 6.63071 18.0346 6.69218 18.0061L12.5086 15.3041L18.3251 18.0059C18.3975 18.0395 18.4771 18.0543 18.5567 18.049C18.6363 18.0437 18.7133 18.0184 18.7805 17.9754C18.8478 17.9325 18.9031 17.8734 18.9415 17.8034C18.9799 17.7335 19 17.655 19 17.5752V4.22012C19 4.12959 18.9741 4.04094 18.9254 3.96463C18.8767 3.88832 18.8072 3.82752 18.7251 3.78939L12.7085 0.994487C12.6444 0.964667 12.5744 0.949542 12.5037 0.950217C12.4361 0.950811 12.3694 0.965839 12.308 0.994297L6.49154 3.69629L0.67507 0.994487C0.613733 0.965964 0.547011 0.95087 0.47937 0.950217ZM12.7207 2.04747L18.05 4.52317V16.8308L12.7912 14.388L12.7207 2.04747ZM12.1511 2.11473L12.2214 14.3897L6.77274 16.921L6.76096 14.8556C6.57134 14.8704 6.38096 14.8727 6.19096 14.8618L6.20274 16.9172L0.95 14.4769V2.16964L6.13225 4.57694L6.1408 6.07946C6.33149 6.0781 6.52205 6.08965 6.71118 6.11404L6.70263 4.64591L12.1511 2.11473Z" fill="#222222"/>
</g>
<defs>
<clipPath id="clip0_3558_3031">
<rect width="19" height="19" fill="white"/>
</clipPath>
</defs>
</svg>
