<svg width="20" height="21" viewBox="0 0 20 21" fill="none" xmlns="http://www.w3.org/2000/svg">
<g id="list-ul-alt_svgrepo.com">
<path id="Vector" d="M6.71208 5.1617L17.44 5.1623M6.71208 10.1131L17.44 10.1138M6.71208 15.0645L17.44 15.0651M2.99855 5.16115H3.0068M2.99855 10.1125H3.0068M2.99855 15.0639H3.0068M3.41117 5.16115C3.41117 5.38903 3.22643 5.57376 2.99855 5.57376C2.77067 5.57376 2.58594 5.38903 2.58594 5.16115C2.58594 4.93327 2.77067 4.74854 2.99855 4.74854C3.22643 4.74854 3.41117 4.93327 3.41117 5.16115ZM3.41117 10.1125C3.41117 10.3404 3.22643 10.5251 2.99855 10.5251C2.77067 10.5251 2.58594 10.3404 2.58594 10.1125C2.58594 9.88467 2.77067 9.6999 2.99855 9.6999C3.22643 9.6999 3.41117 9.88467 3.41117 10.1125ZM3.41117 15.0639C3.41117 15.2917 3.22643 15.4765 2.99855 15.4765C2.77067 15.4765 2.58594 15.2917 2.58594 15.0639C2.58594 14.836 2.77067 14.6513 2.99855 14.6513C3.22643 14.6513 3.41117 14.836 3.41117 15.0639Z" stroke="black" stroke-width="1.65046" stroke-linecap="round" stroke-linejoin="round"/>
</g>
</svg>