<svg width="17" height="16" viewBox="0 0 17 16" fill="none" xmlns="http://www.w3.org/2000/svg">
<path d="M11.939 4.56246C11.6791 4.3024 11.5268 3.95379 11.5128 3.58634C11.4988 3.21889 11.624 2.8597 11.8634 2.58058C11.8832 2.55737 11.8935 2.52753 11.8922 2.49705C11.8909 2.46656 11.8782 2.43769 11.8565 2.41621L10.4775 1.03558C10.4547 1.0128 10.4238 1 10.3915 1C10.3593 1 10.3284 1.0128 10.3056 1.03558L8.10746 3.23371C8.02634 3.31478 7.96524 3.41364 7.92902 3.52246C7.89292 3.63152 7.8319 3.73066 7.7508 3.81202C7.66971 3.89339 7.57077 3.95474 7.46183 3.99121C7.35296 4.02749 7.254 4.08858 7.17277 4.16965L1.53558 9.80558C1.5128 9.82838 1.5 9.85929 1.5 9.89152C1.5 9.92375 1.5128 9.95466 1.53558 9.97746L2.91465 11.3565C2.93613 11.3782 2.965 11.3909 2.99549 11.3922C3.02597 11.3935 3.05581 11.3832 3.07902 11.3634C3.35808 11.1237 3.71735 10.9983 4.08493 11.0123C4.4525 11.0262 4.80125 11.1785 5.06135 11.4386C5.32145 11.6987 5.47371 12.0474 5.48765 12.415C5.50159 12.7826 5.37618 13.1418 5.13652 13.4209C5.11672 13.4441 5.10643 13.4739 5.1077 13.5044C5.10898 13.5349 5.12173 13.5638 5.1434 13.5853L6.52246 14.9643C6.54526 14.9871 6.57617 14.9999 6.6084 14.9999C6.64063 14.9999 6.67154 14.9871 6.69433 14.9643L12.3318 9.32715C12.4129 9.24592 12.474 9.14696 12.5103 9.03808C12.5464 8.92903 12.6074 8.82989 12.6885 8.74852C12.7696 8.66715 12.8685 8.6058 12.9775 8.56933C13.0863 8.53312 13.1851 8.47202 13.2662 8.3909L15.4643 6.19277C15.4871 6.16998 15.4999 6.13906 15.4999 6.10683C15.4999 6.0746 15.4871 6.04369 15.4643 6.0209L14.0853 4.64183C14.0638 4.62017 14.0349 4.60742 14.0044 4.60614C13.9739 4.60487 13.9441 4.61516 13.9209 4.63496C13.6422 4.87476 13.2832 5.00052 12.9158 4.98708C12.5483 4.97363 12.1995 4.82199 11.939 4.56246Z" stroke="white" stroke-miterlimit="10"/>
<path d="M8.32844 4.38874L7.8125 3.8728M9.70406 5.76437L9.36 5.42062M11.0797 7.1403L10.7359 6.79624M12.6275 8.6878L12.1116 8.17187" stroke="white" stroke-miterlimit="10" stroke-linecap="round"/>
</svg>
